# xmcd
#
# Track frame offsets: 
#        150
#        14298
#        39050
#        56420
#        66423
#        83980
#        97734
#        111973
#        126059
#        138588
#        157591
#        178026
#        190356
#        199044
#        222809
#        238388
#        250267
#        263550
#        275748
#
# Disc length: 3894 seconds
#
# Revision: 0
# Processed by: cddbd v1.5.2PL0 Copyright (c) Steve Scherf et al.
# Submitted via: ExactAudioCopy v0.99pb5
#
DISCID=090f3413
DTITLE=Various Artist - Western Mail präs. Countryhits Vol. 3 
DYEAR=2010
DGENRE=Country
TTITLE0=Meet Me In Heaven - Mark Bender
TTITLE1=Pure Country - Boss Band
TTITLE2=Same Old Moon - Carl Jolina 
TTITLE3=Good And Country - Chicken Train
TTITLE4=After Last Night - Cripple Creek Band
TTITLE5=Times Do Change - Henry Eye
TTITLE6=That Girl Who Sang Johnny Cash - Barry P. Foley
TTITLE7=Back To Our Love - Gitty
TTITLE8=I Never Met Slim Dusty - Andy Glandt
TTITLE9=The Musing Game - Katie Grant
TTITLE10=Eyes Like A Child - Roland Heinl
TTITLE11=Weymouth - Joe Hodgkins
TTITLE12=Nashville Cats Boogie - Hermann Lammers Meyer
TTITLE13=Fooly Truly Blue - Lucky Sale
TTITLE14=May And A Eagle (Album Version) - Jackson Mackay
TTITLE15=There's A Way - Mark Merritt
TTITLE16=You're An Angel, That's The Truth - Andreas Oscar
TTITLE17=Little Brown Jack - Rascal and Mc Lane
TTITLE18=Who Is Lucky - Stan Silver
EXTD=
EXTT0=
EXTT1=
EXTT2=
EXTT3=
EXTT4=
EXTT5=
EXTT6=
EXTT7=
EXTT8=
EXTT9=
EXTT10=
EXTT11=
EXTT12=
EXTT13=
EXTT14=
EXTT15=
EXTT16=
EXTT17=
EXTT18=
PLAYORDER=
